<mxfile host="app.diagrams.net" modified="2023-08-07T19:28:30.064Z" agent="Mozilla/5.0 (X11; Ubuntu; Linux x86_64; rv:109.0) Gecko/20100101 Firefox/116.0" etag="fHWxWQJQ5B77CSbbPwQH" version="21.6.6" type="device">
  <diagram name="Page-1" id="Vx0x-LmmZZPAxNi0X9id">
    <mxGraphModel dx="1434" dy="1916" grid="1" gridSize="10" guides="1" tooltips="1" connect="1" arrows="1" fold="1" page="1" pageScale="1" pageWidth="850" pageHeight="1100" math="0" shadow="0">
      <root>
        <mxCell id="0" />
        <mxCell id="1" parent="0" />
        <mxCell id="q1X4v1gGL97aTY3OsgLI-19" style="edgeStyle=orthogonalEdgeStyle;rounded=0;orthogonalLoop=1;jettySize=auto;html=1;entryX=0.5;entryY=0;entryDx=0;entryDy=0;entryPerimeter=0;fillColor=#ffe6cc;strokeColor=#d79b00;" parent="1" source="q1X4v1gGL97aTY3OsgLI-1" target="q1X4v1gGL97aTY3OsgLI-14" edge="1">
          <mxGeometry relative="1" as="geometry" />
        </mxCell>
        <mxCell id="KT7zYVXL9veD8g8W_OQK-9" style="edgeStyle=none;curved=1;rounded=0;orthogonalLoop=1;jettySize=auto;html=1;fontSize=12;startSize=8;endSize=8;" parent="1" source="q1X4v1gGL97aTY3OsgLI-1" target="KT7zYVXL9veD8g8W_OQK-1" edge="1">
          <mxGeometry relative="1" as="geometry" />
        </mxCell>
        <mxCell id="KT7zYVXL9veD8g8W_OQK-10" value="listen" style="edgeLabel;html=1;align=center;verticalAlign=middle;resizable=0;points=[];fontSize=16;" parent="KT7zYVXL9veD8g8W_OQK-9" vertex="1" connectable="0">
          <mxGeometry x="-0.1545" y="3" relative="1" as="geometry">
            <mxPoint as="offset" />
          </mxGeometry>
        </mxCell>
        <mxCell id="rW9GASiEuVQtm67VegdP-8" value="" style="edgeStyle=none;curved=1;rounded=0;orthogonalLoop=1;jettySize=auto;html=1;fontSize=12;startSize=8;endSize=8;entryX=0.5;entryY=1;entryDx=0;entryDy=0;" edge="1" parent="1" source="q1X4v1gGL97aTY3OsgLI-1" target="q1X4v1gGL97aTY3OsgLI-2">
          <mxGeometry relative="1" as="geometry">
            <mxPoint x="480" y="380" as="targetPoint" />
          </mxGeometry>
        </mxCell>
        <mxCell id="q1X4v1gGL97aTY3OsgLI-1" value="&lt;div&gt;ms-ticket&lt;/div&gt;" style="rounded=0;whiteSpace=wrap;html=1;fillColor=#ffe6cc;strokeColor=#d79b00;" parent="1" vertex="1">
          <mxGeometry x="220" y="350" width="120" height="60" as="geometry" />
        </mxCell>
        <mxCell id="q1X4v1gGL97aTY3OsgLI-18" style="edgeStyle=orthogonalEdgeStyle;rounded=0;orthogonalLoop=1;jettySize=auto;html=1;fillColor=#ffe6cc;strokeColor=#d79b00;" parent="1" source="q1X4v1gGL97aTY3OsgLI-2" target="q1X4v1gGL97aTY3OsgLI-15" edge="1">
          <mxGeometry relative="1" as="geometry" />
        </mxCell>
        <mxCell id="q1X4v1gGL97aTY3OsgLI-2" value="&lt;div&gt;ms-cards&lt;/div&gt;" style="rounded=0;whiteSpace=wrap;html=1;fillColor=#ffe6cc;strokeColor=#d79b00;" parent="1" vertex="1">
          <mxGeometry x="480" y="180" width="120" height="60" as="geometry" />
        </mxCell>
        <mxCell id="q1X4v1gGL97aTY3OsgLI-5" style="edgeStyle=orthogonalEdgeStyle;rounded=0;orthogonalLoop=1;jettySize=auto;html=1;entryX=0.5;entryY=0;entryDx=0;entryDy=0;fillColor=#ffe6cc;strokeColor=#d79b00;" parent="1" source="q1X4v1gGL97aTY3OsgLI-4" target="q1X4v1gGL97aTY3OsgLI-2" edge="1">
          <mxGeometry relative="1" as="geometry" />
        </mxCell>
        <mxCell id="q1X4v1gGL97aTY3OsgLI-17" style="edgeStyle=orthogonalEdgeStyle;rounded=0;orthogonalLoop=1;jettySize=auto;html=1;entryX=0.5;entryY=1;entryDx=0;entryDy=0;entryPerimeter=0;fillColor=#ffe6cc;strokeColor=#d79b00;" parent="1" source="q1X4v1gGL97aTY3OsgLI-4" target="q1X4v1gGL97aTY3OsgLI-16" edge="1">
          <mxGeometry relative="1" as="geometry" />
        </mxCell>
        <mxCell id="KT7zYVXL9veD8g8W_OQK-3" style="edgeStyle=none;curved=1;rounded=0;orthogonalLoop=1;jettySize=auto;html=1;fontSize=12;startSize=8;endSize=8;" parent="1" source="q1X4v1gGL97aTY3OsgLI-4" target="KT7zYVXL9veD8g8W_OQK-1" edge="1">
          <mxGeometry relative="1" as="geometry" />
        </mxCell>
        <mxCell id="KT7zYVXL9veD8g8W_OQK-11" value="&lt;div&gt;write&lt;br&gt;&lt;/div&gt;" style="edgeLabel;html=1;align=center;verticalAlign=middle;resizable=0;points=[];fontSize=16;" parent="KT7zYVXL9veD8g8W_OQK-3" vertex="1" connectable="0">
          <mxGeometry x="0.0189" y="-2" relative="1" as="geometry">
            <mxPoint as="offset" />
          </mxGeometry>
        </mxCell>
        <mxCell id="q1X4v1gGL97aTY3OsgLI-4" value="&lt;div&gt;ms-order&lt;/div&gt;" style="rounded=0;whiteSpace=wrap;html=1;fillColor=#ffe6cc;strokeColor=#d79b00;" parent="1" vertex="1">
          <mxGeometry x="270" y="-30" width="120" height="60" as="geometry" />
        </mxCell>
        <mxCell id="q1X4v1gGL97aTY3OsgLI-8" style="edgeStyle=orthogonalEdgeStyle;rounded=0;orthogonalLoop=1;jettySize=auto;html=1;entryX=0;entryY=0.5;entryDx=0;entryDy=0;fillColor=#ffe6cc;strokeColor=#d79b00;" parent="1" source="q1X4v1gGL97aTY3OsgLI-7" target="q1X4v1gGL97aTY3OsgLI-4" edge="1">
          <mxGeometry relative="1" as="geometry" />
        </mxCell>
        <mxCell id="q1X4v1gGL97aTY3OsgLI-7" value="User" style="shape=umlActor;verticalLabelPosition=bottom;verticalAlign=top;html=1;outlineConnect=0;fillColor=#ffe6cc;strokeColor=#d79b00;" parent="1" vertex="1">
          <mxGeometry x="70" y="90" width="30" height="60" as="geometry" />
        </mxCell>
        <mxCell id="q1X4v1gGL97aTY3OsgLI-14" value="ticket db" style="shape=cylinder3;whiteSpace=wrap;html=1;boundedLbl=1;backgroundOutline=1;size=15;fillColor=#ffe6cc;strokeColor=#d79b00;" parent="1" vertex="1">
          <mxGeometry x="250" y="470" width="60" height="80" as="geometry" />
        </mxCell>
        <mxCell id="q1X4v1gGL97aTY3OsgLI-15" value="card db" style="shape=cylinder3;whiteSpace=wrap;html=1;boundedLbl=1;backgroundOutline=1;size=15;fillColor=#ffe6cc;strokeColor=#d79b00;" parent="1" vertex="1">
          <mxGeometry x="710" y="155" width="60" height="80" as="geometry" />
        </mxCell>
        <mxCell id="q1X4v1gGL97aTY3OsgLI-16" value="order db" style="shape=cylinder3;whiteSpace=wrap;html=1;boundedLbl=1;backgroundOutline=1;size=15;fillColor=#ffe6cc;strokeColor=#d79b00;" parent="1" vertex="1">
          <mxGeometry x="300" y="-180" width="60" height="80" as="geometry" />
        </mxCell>
        <mxCell id="q1X4v1gGL97aTY3OsgLI-23" style="edgeStyle=orthogonalEdgeStyle;rounded=0;orthogonalLoop=1;jettySize=auto;html=1;fillColor=#ffe6cc;strokeColor=#d79b00;" parent="1" source="q1X4v1gGL97aTY3OsgLI-20" target="q1X4v1gGL97aTY3OsgLI-1" edge="1">
          <mxGeometry relative="1" as="geometry" />
        </mxCell>
        <mxCell id="q1X4v1gGL97aTY3OsgLI-25" style="edgeStyle=orthogonalEdgeStyle;rounded=0;orthogonalLoop=1;jettySize=auto;html=1;entryX=0;entryY=0.5;entryDx=0;entryDy=0;fillColor=#ffe6cc;strokeColor=#d79b00;" parent="1" source="q1X4v1gGL97aTY3OsgLI-20" target="q1X4v1gGL97aTY3OsgLI-4" edge="1">
          <mxGeometry relative="1" as="geometry" />
        </mxCell>
        <mxCell id="q1X4v1gGL97aTY3OsgLI-20" value="&lt;div&gt;Manager&lt;/div&gt;&lt;div&gt;&lt;br&gt;&lt;/div&gt;" style="shape=umlActor;verticalLabelPosition=bottom;verticalAlign=top;html=1;outlineConnect=0;fillColor=#ffe6cc;strokeColor=#d79b00;" parent="1" vertex="1">
          <mxGeometry x="70" y="225" width="30" height="60" as="geometry" />
        </mxCell>
        <mxCell id="q1X4v1gGL97aTY3OsgLI-26" value="&lt;div style=&quot;font-size: 17px;&quot;&gt;&lt;font style=&quot;font-size: 17px;&quot;&gt;ms-auth gonna manage rights here&lt;/font&gt;&lt;/div&gt;&lt;div style=&quot;font-size: 17px;&quot;&gt;&lt;font style=&quot;font-size: 17px;&quot;&gt;&lt;br&gt;&lt;/font&gt;&lt;/div&gt;" style="text;html=1;align=center;verticalAlign=middle;whiteSpace=wrap;rounded=0;" parent="1" vertex="1">
          <mxGeometry x="120" y="180" width="60" height="30" as="geometry" />
        </mxCell>
        <mxCell id="KT7zYVXL9veD8g8W_OQK-1" value="&lt;div&gt;Rabbit&lt;/div&gt;" style="ellipse;whiteSpace=wrap;html=1;aspect=fixed;fontSize=16;" parent="1" vertex="1">
          <mxGeometry x="310" y="120" width="80" height="80" as="geometry" />
        </mxCell>
      </root>
    </mxGraphModel>
  </diagram>
</mxfile>
